<?xml version="1.0" standalone="no"?>
<!DOCTYPE svg PUBLIC "-//W3C//DTD SVG 20010904//EN"
 "http://www.w3.org/TR/2001/REC-SVG-20010904/DTD/svg10.dtd">
<svg version="1.0" xmlns="http://www.w3.org/2000/svg"
 width="826.000000pt" height="826.000000pt" viewBox="0 0 826.000000 826.000000"
 preserveAspectRatio="xMidYMid meet">
<metadata>
Created by potrace 1.11, written by Peter Selinger 2001-2013
</metadata>
<g transform="translate(0.000000,826.000000) scale(0.100000,-0.100000)"
fill="#000000" stroke="none">
<path d="M4005 7813 c-44 -23 -94 -73 -116 -116 -26 -50 -64 -196 -88 -342
-54 -321 -98 -765 -211 -2130 -82 -988 -125 -1474 -160 -1783 l-20 -172 -103
-198 c-57 -108 -116 -224 -131 -257 l-29 -60 -58 230 -59 230 39 75 c89 172
126 323 125 520 0 277 -94 548 -291 844 -111 166 -143 202 -623 701 -243 253
-479 505 -523 560 -220 273 -315 475 -325 689 -3 67 0 130 8 165 32 149 130
273 275 347 103 53 157 70 280 89 239 36 461 2 633 -97 76 -43 193 -156 249
-241 93 -140 165 -353 199 -587 9 -63 18 -117 20 -119 12 -13 170 21 209 44
81 47 83 55 101 504 18 442 18 445 -46 515 -99 107 -432 203 -839 242 -234 22
-679 15 -836 -15 -486 -90 -834 -325 -963 -651 -94 -238 -86 -533 22 -790 93
-219 172 -317 632 -782 l394 -396 -44 -94 c-98 -209 -200 -551 -405 -1352 -72
-280 -133 -511 -135 -514 -3 -2 -34 9 -70 26 -323 151 -531 510 -602 1042 -9
69 -18 131 -20 139 -7 21 -160 10 -210 -15 -43 -23 -78 -67 -95 -123 -7 -22
-15 -214 -21 -509 -9 -432 -9 -478 7 -517 47 -125 271 -231 655 -309 91 -19
189 -37 218 -41 28 -4 52 -10 52 -14 0 -11 -149 -525 -221 -766 -83 -274 -178
-534 -256 -696 l-65 -136 -196 -56 c-109 -31 -216 -61 -239 -66 -24 -6 -61
-16 -83 -21 l-40 -11 0 -399 0 -400 1350 0 1349 0 65 24 c95 34 156 78 249
176 129 138 231 328 313 583 l37 118 52 -99 c131 -250 302 -450 515 -603 131
-94 258 -138 505 -175 112 -17 250 -18 1973 -21 l1852 -4 0 429 0 429 -97 28
c-401 112 -819 268 -1570 583 -208 88 -464 192 -569 233 -185 72 -192 75 -213
114 -13 22 -133 261 -267 530 -308 619 -390 779 -477 935 -84 151 -216 353
-283 435 -27 33 -55 68 -63 78 -7 9 -17 54 -22 100 -15 155 -79 893 -124 1452
-146 1794 -207 2251 -318 2396 -61 80 -175 113 -252 72z m99 -1219 c22 -206
59 -636 121 -1392 30 -370 64 -774 75 -898 11 -123 20 -232 20 -242 0 -15 -8
-17 -59 -14 -111 7 -241 -40 -357 -130 l-64 -49 0 28 c0 15 9 123 20 238 10
116 38 433 60 705 110 1340 160 1903 167 1896 2 -1 9 -65 17 -142z m-1945
-2214 c105 -153 178 -320 218 -502 13 -61 18 -128 18 -253 0 -151 -3 -179 -23
-245 -36 -113 -88 -203 -165 -286 -156 -167 -346 -259 -575 -279 -63 -6 -82
-5 -82 5 0 13 128 520 226 895 92 352 174 620 244 800 l11 30 34 -40 c19 -22
61 -78 94 -125z m2167 -961 c23 -11 47 -26 53 -32 5 -7 17 -73 25 -147 31
-263 69 -529 121 -845 29 -176 52 -320 51 -320 0 -1 -75 3 -166 9 -187 11
-493 -3 -698 -33 l-123 -17 6 25 c6 31 111 675 121 746 12 85 190 374 310 503
115 125 204 158 300 111z m-1524 -757 c31 -119 68 -256 82 -305 l24 -87 -95
-188 c-53 -103 -110 -214 -129 -248 l-33 -60 -128 -48 c-70 -27 -306 -123
-523 -214 -613 -256 -625 -260 -800 -328 -90 -35 -165 -64 -167 -64 -1 0 9 28
22 63 56 144 199 598 301 954 l109 383 121 0 c445 0 840 123 1124 349 14 11
27 18 29 15 3 -3 31 -102 63 -222z m2396 -687 c-3 -3 -240 45 -245 49 -2 2
-85 505 -108 651 -3 17 77 -134 176 -334 99 -199 179 -364 177 -366z m-639
-506 c58 -5 110 -9 116 -9 7 0 17 -31 25 -72 23 -131 79 -367 120 -509 49
-171 105 -314 171 -438 l50 -94 -178 7 c-277 11 -479 35 -599 71 -77 23 -167
87 -280 200 -112 112 -198 234 -279 395 -51 101 -170 389 -163 395 4 4 173 32
278 45 203 27 500 31 739 9z m666 -119 c66 -17 175 -49 242 -71 l122 -40 36
-64 c58 -105 234 -364 317 -465 84 -104 226 -254 302 -318 l49 -42 -369 0
c-339 0 -372 2 -409 19 -112 52 -243 269 -330 543 -29 91 -98 367 -110 437 -6
39 -5 43 11 38 11 -3 73 -20 139 -37z m-2141 -77 c-121 -539 -272 -846 -448
-912 -69 -25 -178 -40 -351 -47 l-140 -6 45 38 c88 74 288 281 369 383 82 103
239 335 299 442 18 31 38 61 45 67 10 9 158 59 180 61 4 1 5 -11 1 -26z
m-1141 -427 c-95 -79 -270 -172 -416 -221 -104 -34 -264 -69 -294 -63 -10 2
44 27 118 56 73 28 240 97 369 151 129 55 239 100 243 100 5 1 -4 -10 -20 -23z
m4783 -61 c88 -37 245 -101 349 -142 105 -42 192 -78 195 -81 11 -11 -119 10
-214 34 -171 43 -327 116 -473 220 -99 71 -99 71 143 -31z"/>
<path d="M6405 7049 c-637 -61 -1048 -348 -1170 -815 -27 -105 -38 -226 -32
-369 16 -406 191 -672 557 -847 175 -83 304 -122 745 -224 467 -107 694 -190
808 -294 151 -138 191 -404 91 -603 -41 -80 -144 -175 -244 -224 -162 -80
-341 -113 -616 -113 -251 -1 -432 21 -658 80 -194 50 -460 152 -658 251 l-58
29 0 -330 0 -329 113 -35 c251 -79 560 -146 835 -183 182 -24 631 -24 797 0
655 97 1074 418 1177 902 24 115 26 343 4 467 -65 361 -280 593 -706 762 -154
61 -299 101 -649 181 -603 137 -797 227 -883 411 -25 54 -32 83 -36 158 -16
308 155 488 538 568 123 25 496 36 662 19 273 -28 555 -106 811 -225 l77 -35
0 302 0 303 -107 37 c-235 79 -520 134 -817 157 -151 12 -452 11 -581 -1z"/>
</g>
</svg>
